<svg width="256" height="256" viewBox="0 0 256 256" fill="none" xmlns="http://www.w3.org/2000/svg" role="img" aria-labelledby="title desc">
  <title id="title">DealCheck LB logo</title>
  <desc id="desc">A DealCheck price tag mark with a check and Lebanese cedar detail.</desc>
  <defs>
    <linearGradient id="tag" x1="55" y1="38" x2="205" y2="221" gradientUnits="userSpaceOnUse">
      <stop offset="0" stop-color="#0F766E"/>
      <stop offset="1" stop-color="#2563EB"/>
    </linearGradient>
    <linearGradient id="edge" x1="64" y1="52" x2="197" y2="204" gradientUnits="userSpaceOnUse">
      <stop offset="0" stop-color="#F8FAFC" stop-opacity="0.34"/>
      <stop offset="1" stop-color="#F8FAFC" stop-opacity="0"/>
    </linearGradient>
  </defs>

  <rect x="20" y="20" width="216" height="216" rx="48" fill="#07111F"/>

  <path
    d="M64 56H141C156.9 56 172.2 62.3 183.5 73.6L206.4 96.5C217.7 107.8 217.7 126.2 206.4 137.5L137.5 206.4C126.2 217.7 107.8 217.7 96.5 206.4L73.6 183.5C62.3 172.2 56 156.9 56 141V64C56 59.6 59.6 56 64 56Z"
    fill="url(#tag)"
  />

  <path
    d="M71 68H138.5C152 68 164.9 73.4 174.4 82.9L196.5 105C203.2 111.7 203.2 122.6 196.5 129.3L128.8 197C122.1 203.7 111.2 203.7 104.5 197L82.9 175.4C73.4 165.9 68 153 68 139.5V71C68 69.3 69.3 68 71 68Z"
    stroke="url(#edge)"
    stroke-width="8"
  />

  <circle cx="91" cy="91" r="12" fill="#07111F" fill-opacity="0.82"/>
  <circle cx="91" cy="91" r="4" fill="#F8FAFC" fill-opacity="0.78"/>

  <path
    d="M91 140.5L116.5 166L168 111"
    stroke="#F8FAFC"
    stroke-width="17"
    stroke-linecap="round"
    stroke-linejoin="round"
  />

  <path d="M155 78L166 94H160L171 110H163L177 130H141L155 110H147L158 94H152L155 78Z" fill="#F8FAFC" fill-opacity="0.92"/>
  <rect x="154" y="128" width="9" height="14" rx="3" fill="#F8FAFC" fill-opacity="0.92"/>
</svg>
